<svg width="42" height="38" viewBox="0 0 42 38" fill="none" xmlns="http://www.w3.org/2000/svg">
<path d="M24.0496 9.74033H19.7148L19.94 8.67058C20.2214 7.03781 21.8541 6.13697 24.6689 6.13697C25.063 6.13697 25.4007 6.19327 25.6259 6.19327L26.8645 0.112605C26.4141 0.0563025 25.457 0 24.3311 0C20.5592 0 14.0288 1.12605 12.6777 8.50168L8.51172 26.237L16.4496 22.4647L18.5888 15.3706H22.9237L24.0496 9.74033Z" fill="white"/>
<path d="M32.8884 29.4471C31.1432 29.4471 29.398 29.1093 29.398 27.1387C29.398 26.9135 29.4543 26.2942 29.5106 25.9001L30.5239 22.8034H34.521L36.3788 16.6665H31.7062L33.0573 9.91016L24.838 13.6261L24.1624 16.6665H21.6853L20.0527 22.8034H22.6424L21.4039 27.0261C21.2913 27.6454 21.1787 28.3211 21.1787 28.8278C21.1787 34.2891 25.5135 36.3723 30.6928 36.3723C31.5936 36.3723 32.7758 36.2597 32.7758 36.2597C33.2825 33.5572 33.564 32.0933 34.1269 29.3908C34.1269 29.3908 33.564 29.4471 32.8884 29.4471Z" fill="white"/>
<path d="M38.9673 29.3922C38.7421 29.3359 38.4606 29.3359 38.2355 29.3359C38.0103 29.3359 37.7288 29.3922 37.5036 29.3922C36.0962 29.6737 35.0265 30.7997 34.6888 32.1508C34.6888 32.2071 34.6888 32.2634 34.6325 32.376C34.5762 32.5449 34.5762 32.77 34.5762 32.9389C34.5762 34.2901 35.308 35.4723 36.434 36.1478C36.9406 36.4293 37.5599 36.5982 38.2355 36.5982C38.911 36.5982 39.474 36.4293 40.037 36.1478C41.1629 35.5286 41.8948 34.3463 41.8948 32.9389C41.8385 31.1937 40.5999 29.73 38.9673 29.3922Z" fill="#C8D7F0"/>
</svg>
