<svg width="9" height="9" viewBox="0 0 9 9" fill="none" xmlns="http://www.w3.org/2000/svg">
<path opacity="0.8" d="M8.46792 7.53133L8.46792 0.936466C8.46524 0.813706 8.43835 0.692684 8.38878 0.580343C8.29418 0.353823 8.11409 0.173732 7.88757 0.0791333C7.77523 0.0295682 7.65421 0.00267452 7.53145 -4.95676e-06L0.936579 -4.59851e-06C0.8136 -4.61958e-06 0.691826 0.0242177 0.578208 0.0712801C0.46459 0.118342 0.361353 0.187322 0.274394 0.274281C0.0987715 0.449904 0.000107703 0.688099 0.000108014 0.936467C0.000107993 1.18483 0.0987719 1.42303 0.274394 1.59865C0.450017 1.77427 0.688212 1.87294 0.936579 1.87294L5.2826 1.86634L0.277092 6.87185C0.102186 7.04676 0.00392357 7.28398 0.00392357 7.53134C0.00392357 7.77869 0.102185 8.01592 0.277092 8.19082C0.451999 8.36573 0.689223 8.46399 0.936578 8.46399C1.18393 8.46399 1.42116 8.36573 1.59607 8.19082L6.60157 3.18532L6.59498 7.53134C6.59447 7.65446 6.61835 7.77646 6.66523 7.8903C6.71212 8.00415 6.78108 8.10759 6.86814 8.19465C6.9552 8.28171 7.05863 8.35067 7.17248 8.39755C7.28633 8.44443 7.40833 8.46831 7.53145 8.46781C7.65457 8.46831 7.77657 8.44443 7.89042 8.39755C8.00426 8.35067 8.1077 8.28171 8.19476 8.19465C8.28182 8.10759 8.35078 8.00415 8.39766 7.8903C8.44455 7.77646 8.46842 7.65446 8.46792 7.53133Z" fill="white"/>
</svg>
